<mxfile host="app.diagrams.net" modified="2023-11-23T13:17:32.899Z" agent="Mozilla/5.0 (Windows NT 10.0; Win64; x64) AppleWebKit/537.36 (KHTML, like Gecko) Chrome/119.0.0.0 Safari/537.36" version="22.1.3" etag="JEjQlZmMKKtBOgMYDRkV" type="github">
  <diagram name="Seite-1" id="3k3nP515G4XN3KYoqKAX">
    <mxGraphModel>
      <root>
        <mxCell id="0" />
        <mxCell id="1" parent="0" />
      </root>
    </mxGraphModel>
  </diagram>
</mxfile>
